PathFileType	4	(X/Y/Z)	marker.trc
DataRate	CameraRate	NumFrames	NumMarkers	Units	OrigDataRate	OrigDataStartFrame	OrigNumFrames
128	128	22	6	m	128	1442	3845
Frame#	Time	US29-1	US29-2	US29-3	US30-1	US30-2	US30-3	
		X1	Y1	Z1	X2	Y2	Z2	X3	Y3	Z3	X4	Y4	Z4	X5	Y5	Z5	X6	Y6	Z6	

1441	11.265625	-0.114390194416046	0.252498775720596	0.0942673981189728	-0.0842553079128265	0.260788083076477	0.0708789378404617	-0.108938500285149	0.274707198143005	0.0969624221324921	-0.154572039842606	0.292913407087326	0.0365369096398354	-0.155860677361488	0.280700743198395	0.0595310516655445	-0.153740048408508	0.30402022600174	0.0595023818314075	
1442	11.273437	-0.120238423347473	0.254345208406448	0.0938103497028351	-0.0901281833648682	0.262172430753708	0.0703670307993889	-0.114501342177391	0.276449769735336	0.0965413376688957	-0.159809216856956	0.29537707567215	0.0361436419188976	-0.16122741997242	0.283194273710251	0.0590817518532276	-0.158799663186073	0.306484639644623	0.0590522773563862	
1443	11.28125	-0.125974431633949	0.256253272294998	0.0934483781456947	-0.0956033393740654	0.263630092144012	0.0700081884860992	-0.119973801076412	0.278277188539505	0.096126526594162	-0.164860755205154	0.297932982444763	0.0358583591878414	-0.166529983282089	0.285713851451874	0.0586416386067867	-0.163828894495964	0.308994263410568	0.0586131699383259	
1444	11.289062	-0.131582155823708	0.258323520421982	0.0930416285991669	-0.101084999740124	0.26529723405838	0.0696112513542175	-0.12524002790451	0.280271828174591	0.0957380160689354	-0.169684901833534	0.300531983375549	0.0355382449924946	-0.171560108661652	0.288347125053406	0.0582158789038658	-0.168572068214417	0.311631321907043	0.0582521595060825	
1445	11.296875	-0.136910885572433	0.260478407144547	0.0927169471979141	-0.106349170207977	0.267035394906998	0.0693126693367958	-0.130320772528648	0.282281696796417	0.0953604951500893	-0.174513220787048	0.30321541428566	0.0352788493037224	-0.176485940814018	0.291088879108429	0.0578203648328781	-0.173206135630608	0.314389884471893	0.0578683614730835	
1446	11.304687	-0.142177924513817	0.262702345848083	0.0922745317220688	-0.111473433673382	0.268831104040146	0.0689638778567314	-0.135250374674797	0.284418016672134	0.0950315147638321	-0.179194375872612	0.30618816614151	0.0338529348373413	-0.181236505508423	0.293879866600037	0.0574394837021828	-0.177681237459183	0.317097455263138	0.0575066469609737	
1447	11.3125	-0.147178411483765	0.265040069818497	0.0919529497623444	-0.116373360157013	0.270777463912964	0.0686192363500595	-0.139985516667366	0.286639660596848	0.0946967378258705	-0.183533355593681	0.30903559923172	0.0336138531565666	-0.185798034071922	0.296777427196503	0.0570580698549747	-0.181978926062584	0.319948524236679	0.0572197251021862	
1448	11.320312	-0.15202060341835	0.267442166805267	0.0916364938020706	-0.12109137326479	0.272816359996796	0.0683998838067055	-0.144571661949158	0.28895577788353	0.0943902432918549	-0.187652960419655	0.311957448720932	0.0334103479981422	-0.190163090825081	0.299726784229279	0.0567263513803482	-0.186044812202454	0.322830975055695	0.0569335445761681	
1449	11.328125	-0.156681910157204	0.269930362701416	0.0913197696208954	-0.125637605786324	0.274899125099182	0.0681222230195999	-0.148948490619659	0.291347056627274	0.0940991044044495	-0.191730096936226	0.314896047115326	0.0333085209131241	-0.19434030354023	0.302711486816406	0.0564026869833469	-0.19006122648716	0.325755089521408	0.0566763766109943	
1450	11.335937	-0.161106839776039	0.272471338510513	0.091042771935463	-0.130091696977615	0.277082949876785	0.0678306519985199	-0.153152734041214	0.293762356042862	0.0938271060585976	-0.195480018854141	0.317950457334518	0.0331459082663059	-0.198369264602661	0.305784463882446	0.056067131459713	-0.193614706397057	0.328842014074326	0.0563830807805061	
1451	11.34375	-0.165328875184059	0.275083512067795	0.0907600373029709	-0.134338572621346	0.279323279857635	0.0675251185894012	-0.157169073820114	0.29629710316658	0.0935313850641251	-0.19927753508091	0.321063965559006	0.0328730568289757	-0.202152624726295	0.308857172727585	0.0558225028216839	-0.197268515825272	0.331869721412659	0.0561667419970036	
1452	11.351562	-0.169404461979866	0.277714669704437	0.0905111506581306	-0.138369724154472	0.281635493040085	0.0672271922230721	-0.161023542284966	0.298800200223923	0.0932458713650703	-0.202790126204491	0.324149549007416	0.0325758755207062	-0.205798745155334	0.311984449625015	0.0554750077426434	-0.200710535049438	0.334852904081345	0.0559084191918373	
1453	11.359375	-0.173313826322556	0.28036841750145	0.0902179181575775	-0.142110526561737	0.283923238515854	0.066955491900444	-0.16460807621479	0.301391810178757	0.0930318534374237	-0.206052899360657	0.327185541391373	0.0323401987552643	-0.209303200244904	0.314948081970215	0.055112149566412	-0.203890889883041	0.337996155023575	0.0557109043002129	
1454	11.367187	-0.176954448223114	0.283030599355698	0.0899506062269211	-0.145770967006683	0.286244839429855	0.0667534172534943	-0.168056696653366	0.303939521312714	0.0927879884839058	-0.209212884306908	0.33034810423851	0.0322032868862152	-0.21250382065773	0.31817227602005	0.0550487972795963	-0.206888601183891	0.340981036424637	0.0555360279977322	
1455	11.375	-0.180318742990494	0.285619169473648	0.0897278413176537	-0.149062216281891	0.288562625646591	0.0665885359048843	-0.171293124556541	0.30645877122879	0.092600092291832	-0.212105050683022	0.33335542678833	0.0320005789399147	-0.215567290782928	0.321181684732437	0.0548542737960815	-0.209668397903442	0.344005316495895	0.0553393214941025	
1456	11.382812	-0.18353246152401	0.288176089525223	0.0895583182573318	-0.152265593409538	0.290840625762939	0.0663341134786606	-0.174206301569939	0.308917999267578	0.0924032032489777	-0.214761674404144	0.336227238178253	0.0318030007183552	-0.218346312642097	0.32409006357193	0.054629310965538	-0.212421715259552	0.346744626760483	0.0551256984472275	
1457	11.390625	-0.186495065689087	0.290641576051712	0.0893335118889809	-0.155180543661118	0.293038666248322	0.0661965012550354	-0.177061811089516	0.311284065246582	0.0921979546546936	-0.217299088835716	0.339094310998917	0.031637866050005	-0.220925837755203	0.327035337686539	0.0544241108000278	-0.214682966470718	0.349631279706955	0.0549612306058407	
1458	11.398437	-0.189307317137718	0.293065667152405	0.0891410112380981	-0.157913073897362	0.295200169086456	0.0659877136349678	-0.179633364081383	0.313636660575867	0.0920436903834343	-0.219542726874352	0.341814696788788	0.031425978988409	-0.223301619291306	0.329681634902954	0.054254025220871	-0.216896176338196	0.352247655391693	0.0547796525061131	
1459	11.40625	-0.191681250929832	0.295438319444656	0.0890671983361244	-0.160330757498741	0.297296315431595	0.0658928900957108	-0.181900665163994	0.315861880779266	0.0919469520449638	-0.221580103039742	0.344411700963974	0.0312741622328758	-0.225460797548294	0.33233979344368	0.054066363722086	-0.218870490789413	0.354838490486145	0.0546016544103622	
1460	11.414062	-0.193966835737228	0.297652989625931	0.0889575034379959	-0.162598520517349	0.299288839101791	0.0657587349414825	-0.184059888124466	0.318046510219574	0.0917675942182541	-0.223436340689659	0.346893131732941	0.0311139319092035	-0.227423712611198	0.334818065166473	0.0539437271654606	-0.220685213804245	0.357266664505005	0.0543990023434162	
1461	11.421875	-0.196051761507988	0.299794465303421	0.0888080894947052	-0.164629384875298	0.301197379827499	0.0656432658433914	-0.185980215668678	0.320085614919662	0.0916402861475945	-0.225144550204277	0.349223494529724	0.0309014152735472	-0.229369297623634	0.337078452110291	0.0536299124360085	-0.222389087080956	0.359556674957275	0.0543139912188053	
1462	11.429687	-0.197928532958031	0.301824033260345	0.0886355862021446	-0.166509091854095	0.303082287311554	0.0655132830142975	-0.187786027789116	0.322055280208588	0.0914639607071877	-0.226734891533852	0.351568251848221	0.0308833215385675	-0.230972990393639	0.339390158653259	0.0535208061337471	-0.223838403820992	0.361833333969116	0.0541953109204769	
